<?xml version="1.0" encoding="UTF-8"?>
<!DOCTYPE svg PUBLIC "-//W3C//DTD SVG 1.1//EN" "http://www.w3.org/Graphics/SVG/1.1/DTD/svg11.dtd">
<!-- Creator: CorelDRAW X8 -->
<svg xmlns="http://www.w3.org/2000/svg" xml:space="preserve" width="210mm" height="297mm" version="1.1" style="shape-rendering:geometricPrecision; text-rendering:geometricPrecision; image-rendering:optimizeQuality; fill-rule:evenodd; clip-rule:evenodd"
viewBox="0 0 21000 29700"
 xmlns:xlink="http://www.w3.org/1999/xlink">
 <defs>
  <style type="text/css">
   <![CDATA[
    .str2 {stroke:#FEFEFE;stroke-width:30.8}
    .str1 {stroke:#1F1B20;stroke-width:30.82}
    .str0 {stroke:#FEFEFE;stroke-width:20}
    .fil6 {fill:none}
    .fil0 {fill:#FEFEFE}
    .fil1 {fill:#E45C3B}
    .fil4 {fill:#A0D5D8}
    .fil3 {fill:#4D4D4D}
    .fil2 {fill:#4DBCC3}
    .fil7 {fill:#2F383C}
    .fil5 {fill:#1F1B20;fill-rule:nonzero}
   ]]>
  </style>
    <clipPath id="id0">
     <path d="M8365 6806l-13 424c76,41 167,71 256,88 90,17 176,20 242,8 45,-9 93,-29 143,-58l1 -416c2,-48 135,-91 175,0l-1 291c79,-65 186,-165 280,-254l121 130c-127,120 -263,242 -367,320 -111,82 -214,138 -318,158 -88,17 -198,13 -308,-8 -108,-20 -218,-57 -311,-107l-3 -2c-118,-71 -220,-144 -313,-221 -93,-76 -175,-155 -252,-238 -49,-59 43,-190 128,-119 73,78 150,152 235,223 38,31 78,62 121,93l9 -318c11,-54 131,-99 175,6z"/>
    </clipPath>
    <clipPath id="id1">
     <path d="M13777 7298c-350,32 -585,-179 -845,-413 -96,-86 -197,-176 -307,-255l16 430 0 0 0 0c-5,17 -15,33 -29,45 -39,33 -97,28 -130,-11 -7,-8 -12,-18 -16,-28l0 0 0 0 0 -1 0 0 -20 -545c-55,-26 -110,-45 -164,-55 -71,-14 -144,-12 -222,12 -60,18 -123,49 -192,93l14 382 0 0 0 0c-5,18 -15,34 -29,45 -39,33 -97,28 -130,-11 -7,-8 -12,-17 -16,-27l0 0 0 -1 0 0 1 -1 -9 -262c-69,56 -158,143 -238,219l-120 -128c128,-121 257,-240 361,-314 109,-79 210,-133 307,-163 106,-32 207,-35 305,-16 95,18 187,56 279,106l3 2c173,103 317,232 453,354 139,125 270,243 412,311l-18 -515 0 0 0 0c5,-17 15,-33 29,-45 39,-33 97,-28 130,11 7,8 12,18 16,28l0 0 0 0 0 1 0 0 21 575c39,6 80,7 123,3l0 1c17,4 33,13 45,25 36,37 35,95 -2,131 -8,7 -17,14 -27,18l-1 -3 0 2z"/>
    </clipPath>
    <clipPath id="id2">
     <path d="M8814 6511l-7 663c-9,75 -148,117 -174,-2l13 -690 -3 0c3,-58 8,-157 118,-154 130,8 155,24 283,80 132,59 258,140 368,234l1 1c66,58 132,123 198,187 223,216 442,430 757,476l-9 -496c12,-55 133,-99 175,-3l8 502c79,-14 167,-50 255,-96 163,-86 339,-224 437,-320l123 125c-108,106 -299,255 -477,349 -144,76 -294,128 -422,123 -435,-16 -699,-273 -969,-535 -62,-61 -124,-121 -192,-181l0 0c-42,-37 -88,-71 -135,-102 -3,76 -143,113 -175,-7l3 -89c-6,-3 -11,-5 -17,-8 -53,-23 -106,-42 -159,-57z"/>
    </clipPath>
    <clipPath id="id3">
     <path d="M9555 6776c108,-106 294,-248 473,-342 143,-76 293,-128 422,-123 434,16 699,273 968,535 62,60 125,121 193,181l-1 0c77,66 162,134 252,190 75,46 153,84 230,102l-22 -614 0 0 0 0c5,-18 15,-33 29,-45 39,-33 97,-28 130,11 7,8 12,18 16,28l0 0 0 0 0 1 0 0 22 616c69,-14 154,-41 244,-83 122,-58 251,-144 360,-268 75,-41 159,12 131,116 -126,144 -275,244 -416,310 -207,98 -404,123 -492,108 -111,-20 -221,-70 -324,-134 -98,-60 -192,-135 -275,-207l-1 0c-66,-58 -132,-123 -198,-187 -102,-100 -204,-199 -315,-281l10 277 0 0 0 0c-5,18 -15,33 -29,45 -39,33 -97,28 -130,-11 -7,-8 -12,-18 -16,-28l0 0 0 0 0 0 1 -2 -14 -392c-85,-42 -176,-73 -278,-86l0 90c-25,117 -161,88 -175,0l0 -88c-65,13 -136,41 -207,77l7 436c-3,88 -151,112 -176,3l-5 -339c-109,72 -217,160 -286,228l-128 -124z"/>
    </clipPath>
 </defs>
 <g id="Warstwa_x0020_1">
  <metadata id="CorelCorpID_0Corel-Layer"/>
  <rect class="fil0 str0" x="232" y="3011" width="20690" height="11747"/>
 </g>
 <g id="Warstwa_x0020_1_0">
  <metadata id="CorelCorpID_1Corel-Layer"/>
  <g id="_2393854647104">
   <path class="fil1" d="M8365 6806l-13 424c76,41 167,71 256,88 90,17 176,20 242,8 45,-9 93,-29 143,-58l1 -416c2,-48 135,-91 175,0l-1 291c79,-65 164,-143 258,-232l119 128c-127,120 -239,222 -343,300 -111,82 -214,138 -318,158 -88,17 -198,13 -308,-8 -108,-20 -218,-57 -311,-107l-3 -2c-118,-71 -220,-144 -313,-221 -93,-76 -175,-155 -252,-238 -49,-59 43,-190 128,-119 73,78 150,152 235,223 38,31 78,62 121,93l9 -318c11,-54 131,-99 175,6z"/>
   <g style="clip-path:url(#id0)">
    <image x="7683" y="6742" width="1886" height="765" xlink:href="LOGO SYMPOZJUM_Images\LOGO SYMPOZJUM_ImgID1.jpg"/>
   </g>
   <path class="fil2" d="M13777 7298c-350,32 -585,-179 -845,-413 -96,-86 -197,-176 -307,-255l16 430 0 0 0 0c-5,17 -15,33 -29,45 -39,33 -97,28 -130,-11 -7,-8 -12,-18 -16,-28l0 0 0 0 0 -1 0 0 -20 -545c-55,-26 -110,-45 -164,-55 -71,-14 -144,-12 -222,12 -60,18 -123,49 -192,93l14 382 0 0 0 0c-5,18 -15,34 -29,45 -39,33 -97,28 -130,-11 -7,-8 -12,-17 -16,-27l0 0 0 -1 0 0 1 -1 -9 -262c-69,56 -158,143 -238,219l-120 -128c128,-121 257,-240 361,-314 109,-79 210,-133 307,-163 106,-32 207,-35 305,-16 95,18 187,56 279,106l3 2c173,103 317,232 453,354 139,125 270,243 412,311l-18 -515 0 0 0 0c5,-17 15,-33 29,-45 39,-33 97,-28 130,11 7,8 12,18 16,28l0 0 0 0 0 1 0 0 21 575c39,6 80,7 123,3l0 1c17,4 33,13 45,25 36,37 35,95 -2,131 -8,7 -17,14 -27,18l-1 -3 0 2z"/>
   <g style="clip-path:url(#id1)">
    <image x="11341" y="6281" width="2492" height="1020" xlink:href="LOGO SYMPOZJUM_Images\LOGO SYMPOZJUM_ImgID2.jpg"/>
   </g>
   <path class="fil2" d="M8814 6511l-7 663c-9,75 -148,117 -174,-2l13 -690 -3 0c3,-58 8,-157 118,-154 130,8 155,24 283,80 132,59 258,140 368,234l1 1c66,58 132,123 198,187 223,216 442,430 757,476l-9 -496c12,-55 133,-99 175,-3l8 502c79,-14 167,-50 255,-96 163,-86 321,-208 418,-304l123 125c-108,106 -280,239 -458,333 -144,76 -294,128 -422,123 -435,-16 -699,-273 -969,-535 -62,-61 -124,-121 -192,-181l0 0c-42,-37 -88,-71 -135,-102 -3,76 -143,113 -175,-7l3 -89c-6,-3 -11,-5 -17,-8 -53,-23 -106,-42 -159,-57z"/>
   <g style="clip-path:url(#id2)">
    <image x="8633" y="6328" width="2724" height="1163" xlink:href="LOGO SYMPOZJUM_Images\LOGO SYMPOZJUM_ImgID3.jpg"/>
   </g>
   <path class="fil1" d="M9569 6767c108,-106 280,-239 459,-333 143,-76 293,-128 422,-123 434,16 699,273 968,535 62,60 125,121 193,181l-1 0c77,66 162,134 252,190 75,46 153,84 230,102l-22 -614 0 0 0 0c5,-18 15,-33 29,-45 39,-33 97,-28 130,11 7,8 12,18 16,28l0 0 0 0 0 1 0 0 22 616c69,-14 154,-41 244,-83 122,-58 251,-144 360,-268 75,-41 159,12 131,116 -126,144 -275,244 -416,310 -207,98 -404,123 -492,108 -111,-20 -221,-70 -324,-134 -98,-60 -192,-135 -275,-207l-1 0c-66,-58 -132,-123 -198,-187 -102,-100 -204,-199 -315,-281l10 277 0 0 0 0c-5,18 -15,33 -29,45 -39,33 -97,28 -130,-11 -7,-8 -12,-18 -16,-28l0 0 0 0 0 0 1 -2 -14 -392c-85,-42 -176,-73 -278,-86l0 90c-25,117 -161,88 -175,0l0 -88c-65,13 -136,41 -207,77l7 436c-3,88 -151,112 -176,3l-5 -339c-109,72 -208,152 -277,220l-123 -125z"/>
   <g style="clip-path:url(#id3)">
    <image x="9555" y="6311" width="3453" height="1192" xlink:href="LOGO SYMPOZJUM_Images\LOGO SYMPOZJUM_ImgID4.jpg"/>
   </g>
  </g>
  <path class="fil1" d="M15784 8926c-355,-4 -249,-44 -381,308 -21,57 -40,111 -59,165 -9,25 -17,52 -28,75 -17,38 1,2 -22,43l-237 -594 -279 2 514 1204 492 -1203z"/>
  <path class="fil3" d="M15914 8922c0,674 -142,1179 480,1211l-32 -219c-88,-36 -123,-25 -166,-105 -61,-112 -33,-740 -33,-888l-249 1z"/>
  <polygon class="fil4" points="14721,10114 14979,10113 14518,8925 14437,8923 14334,8923 14252,8927 "/>
  <path class="fil4" d="M16598 10086c347,-96 247,-785 246,-1165l-248 7 2 1158z"/>
  <polygon class="fil3" points="16989,9138 17999,9142 18007,9067 18006,8923 16987,8924 "/>
  <polygon class="fil1" points="17373,10113 17620,10114 17620,9345 17452,9344 17373,9349 "/>
  <path class="fil5" d="M4970 9506l-525 0 0 191 316 0 0 164c-73,51 -169,69 -274,69 -237,0 -391,-144 -391,-387 0,-236 145,-383 375,-383 124,0 237,43 313,111l145 -161c-111,-101 -261,-165 -458,-165 -375,0 -611,230 -611,598 0,367 236,597 614,597 199,0 372,-46 496,-153l0 -481zm166 -538l0 1149 874 0 0 -199 -647 0 0 -264 512 0 0 -192 -512 0 0 -295 613 0 0 -199 -840 0zm2074 0l-229 0 0 712 -691 -712 -112 0 0 1149 228 0 0 -712 689 712 115 0 0 -1149zm787 1172c375,0 611,-248 611,-597 0,-360 -249,-598 -611,-598 -375,0 -610,248 -610,598 0,361 248,597 610,597zm0 -215c-227,0 -370,-160 -370,-382 0,-233 153,-383 370,-383 228,0 371,160 371,383 0,232 -153,382 -371,382zm1970 -957l-119 0 -471 662 -474 -662 -116 0 0 1149 229 0 0 -632 317 440 87 0 319 -442 0 634 228 0 0 -1149zm232 0l0 1149 235 0 0 -1149 -235 0zm1023 1172c237,0 393,-85 504,-218l-178 -152c-66,93 -172,153 -319,153 -227,0 -367,-148 -367,-383 0,-236 140,-375 367,-375 147,0 253,61 319,154l178 -152c-111,-135 -275,-222 -504,-222 -371,0 -599,225 -599,595 0,370 228,600 599,600zm1080 0c283,0 431,-122 431,-359 0,-226 -163,-298 -389,-343 -176,-36 -280,-67 -280,-159 0,-71 65,-125 195,-125 126,0 241,33 338,73l94 -192c-112,-54 -257,-90 -432,-90 -288,0 -432,140 -432,349 0,227 171,303 424,354 160,31 241,60 243,150 0,91 -75,137 -204,137 -137,0 -264,-38 -393,-100l-86 199c158,72 288,106 491,106zm1539 -378l67 -453 -184 -30 -18 123c-24,-88 -117,-155 -237,-155 -217,0 -374,184 -374,435 0,197 134,339 318,339 101,0 201,-54 258,-143 19,96 92,156 216,156 217,0 356,-179 356,-407 0,-398 -299,-690 -714,-690 -416,0 -717,307 -717,722 0,416 285,706 709,706 176,0 349,-52 477,-170l-70 -71c-113,99 -259,138 -407,138 -365,0 -607,-244 -607,-603 0,-357 258,-621 615,-621 356,0 614,250 614,592 0,160 -81,293 -210,293 -72,0 -110,-44 -92,-161zm-389 63c-86,0 -148,-71 -148,-169 0,-124 78,-214 187,-214 90,0 157,71 157,165 0,117 -90,218 -196,218z"/>
  <path class="fil5" d="M4148 11737c176,0 268,-75 268,-222 0,-141 -101,-185 -242,-214 -109,-22 -174,-41 -174,-98 0,-44 41,-78 122,-78 78,0 149,20 209,46l59 -120c-70,-33 -160,-55 -268,-55 -179,0 -269,87 -269,216 0,141 107,188 264,220 99,19 149,37 150,93 0,57 -46,85 -126,85 -85,0 -164,-23 -244,-62l-54 124c99,44 179,65 305,65zm1122 -260l266 -467 -167 0 -170 323 -171 -323 -165 0 263 465 0 248 144 0 0 -246zm1486 -467l-74 0 -292 411 -295 -411 -72 0 0 713 142 0 0 -392 197 273 54 0 198 -274 0 393 142 0 0 -713zm842 0l-284 0 0 713 142 0 0 -193 126 0c198,0 305,-84 305,-264 0,-168 -101,-256 -289,-256zm-23 398l-119 0 0 -275 130 0c105,0 151,47 151,137 0,86 -50,138 -162,138zm1173 329c233,0 379,-153 379,-370 0,-224 -154,-371 -379,-371 -233,0 -379,153 -379,371 0,224 154,370 379,370zm0 -133c-141,0 -230,-99 -230,-237 0,-145 95,-238 230,-238 142,0 231,99 231,238 0,144 -96,237 -231,237zm1170 133c176,0 268,-75 268,-222 0,-141 -101,-185 -242,-214 -109,-22 -174,-41 -174,-98 0,-44 41,-78 121,-78 78,0 150,20 210,46l59 -120c-70,-33 -160,-55 -269,-55 -179,0 -268,87 -268,216 0,141 107,188 263,220 100,19 150,37 151,93 0,57 -46,85 -126,85 -85,0 -164,-23 -244,-62l-54 124c98,44 179,65 305,65zm791 -727l0 713 146 0 0 -713 -146 0zm1010 727c206,0 309,-100 309,-295l0 -432 -143 0 0 398c0,137 -52,194 -166,194 -113,0 -165,-57 -165,-194l0 -398 -142 0 0 432c0,195 106,295 307,295zm1592 -727l-74 0 -292 411 -295 -411 -71 0 0 713 141 0 0 -392 198 273 53 0 199 -274 0 393 141 0 0 -713zm1494 590l-393 0c26,-38 70,-70 147,-110 149,-78 243,-155 243,-281 0,-142 -112,-213 -259,-213 -169,0 -282,98 -283,250l0 23 133 0 0 -12c2,-81 63,-135 146,-135 65,0 116,30 117,91 1,78 -94,130 -171,179 -153,98 -223,183 -234,298l0 33 554 0 0 -123zm820 137c201,0 326,-138 326,-370 0,-233 -125,-371 -326,-371 -203,0 -326,138 -326,371 0,232 123,370 326,370zm0 -131c-112,0 -181,-88 -181,-239 0,-152 69,-240 181,-240 111,0 181,88 181,240 0,151 -70,239 -181,239zm1357 -6l-393 0c26,-38 70,-70 147,-110 149,-78 243,-155 243,-281 0,-142 -112,-213 -259,-213 -169,0 -282,98 -283,250l0 23 133 0 0 -12c2,-81 63,-135 146,-135 65,0 116,30 117,91 1,78 -94,130 -171,179 -153,98 -223,183 -234,298l0 33 554 0 0 -123zm631 -453l0 576 143 0 0 -716 -69 0 -236 57 29 113 133 -30z"/>
  <line class="fil6 str1" x1="3780" y1="10595" x2="17908" y2= "10595" />
  <line class="fil6 str1" x1="3780" y1="12055" x2="17908" y2= "12055" />
  <path class="fil7" d="M15152 7473l-3 1 5 -22c18,-162 12,-162 54,-338 -94,140 -11,-68 36,-113 7,-14 13,-25 20,-32 579,-586 182,-1293 -353,-1368 -279,-39 -653,-43 -917,309 -80,107 -283,650 -283,715 0,54 159,53 213,53l0 548 409 0 0 372 808 0c3,-41 7,-83 11,-125z"/>
  <path class="fil7" d="M6349 7473l4 1 -6 -22c-18,-162 -12,-162 -54,-338 95,140 11,-68 -36,-113 -6,-14 -13,-25 -20,-32 -579,-586 -182,-1293 353,-1368 280,-39 654,-43 918,309 79,107 283,650 283,715 0,54 -159,53 -214,53l0 548 -408 0 0 372 -809 0c-3,-41 -7,-83 -11,-125z"/>
  <polygon class="fil6 str2" points="821,13716 20941,13716 20941,3778 821,3778 "/>
 </g>
</svg>
